<svg xmlns="http://www.w3.org/2000/svg" viewBox="0 0 677 182.53"><defs><style>.cls-1{fill:none;}</style></defs><g id="Layer_2" data-name="Layer 2"><g id="Layer_3" data-name="Layer 3"><rect y="1.53" width="28.4" height="24.34"/><rect y="42.53" width="28.4" height="107.57"/><path d="M141.4,120.8a85.25,85.25,0,0,1-14.2,4.6,79,79,0,0,1-18.2,1.9,49.71,49.71,0,0,1-20.1-3.9A33.42,33.42,0,0,1,75,112.7a25.57,25.57,0,0,1-5-15.6,26.24,26.24,0,0,1,4.8-15.7A32.34,32.34,0,0,1,88.4,70.8q8.79-3.9,20.8-3.9A60.63,60.63,0,0,1,125,69a81.55,81.55,0,0,1,14.9,5.6A55.27,55.27,0,0,1,152,82.5l15.8-21.6q-10.41-9-26.1-13.9a114.48,114.48,0,0,0-34.3-4.9q-19,0-34.2,7.2a60.43,60.43,0,0,0-24,19.6,47.53,47.53,0,0,0-8.8,28.2,47.2,47.2,0,0,0,8.9,28.1q8.89,12.49,24.3,19.7t35.2,7.2q18.39,0,32.8-4.7a149.74,149.74,0,0,0,26-11.1l-15.2-20.8Q147.6,118.1,141.4,120.8Z"/><path class="cls-1" d="M386,97.1a25.29,25.29,0,0,1-5.1,15.6,34,34,0,0,1-14.2,10.7q-9.1,3.9-21.5,3.9a53.13,53.13,0,0,1-21.1-3.9,34,34,0,0,1-14.2-10.7,25.29,25.29,0,0,1-5.1-15.6,24.58,24.58,0,0,1,5.1-15.3,34.26,34.26,0,0,1,14.2-10.6,53.13,53.13,0,0,1,21.1-3.9q12.41,0,21.5,3.9a34.26,34.26,0,0,1,14.2,10.6A24.58,24.58,0,0,1,386,97.1Z"/><path d="M385,0V57.46a48.73,48.73,0,0,0-8.7-6.26,67,67,0,0,0-16.7-6.6A81.49,81.49,0,0,0,340,42.12h-1.17q-18.4,0-32.5,7.1a54.52,54.52,0,0,0-22,19.5,50.09,50.09,0,0,0-3,5.35,53.09,53.09,0,0,0-4.95,23q0,16.2,7.4,28.6a50.83,50.83,0,0,0,21.1,19.4q13.69,7,32.1,7a79,79,0,0,0,20.3-2.5,72.59,72.59,0,0,0,17-6.7A45.21,45.21,0,0,0,385.9,134l.68,16.1h26.8V0Zm-4.11,112.7h0a34,34,0,0,1-14.2,10.7q-9.1,3.9-21.5,3.9a53.1,53.1,0,0,1-21.1-3.9,34,34,0,0,1-14.2-10.7,25.29,25.29,0,0,1-5.1-15.6,24.58,24.58,0,0,1,5.1-15.3,34.34,34.34,0,0,1,14.2-10.6,53.1,53.1,0,0,1,21.1-3.9q12.41,0,21.5,3.9a34.41,34.41,0,0,1,14.2,10.6A24.58,24.58,0,0,1,386,97.1,25.3,25.3,0,0,1,380.89,112.7Z"/><path d="M491.67,152.1q-20.46,0-36.19-7t-24.61-19.5A48,48,0,0,1,422,97.1a47.4,47.4,0,0,1,8.88-28.5q8.88-12.3,24.61-19.4t36.19-7.1q20.44,0,36.09,7.1t24.41,19.4A47.72,47.72,0,0,1,561,97.1a48.32,48.32,0,0,1-8.78,28.5q-8.78,12.5-24.41,19.5T491.67,152.1Zm0-24.8a56.74,56.74,0,0,0,21.13-3.8A36.18,36.18,0,0,0,528,112.8a22.6,22.6,0,0,0,5.21-15.7A22.54,22.54,0,0,0,528,81.3a37.46,37.46,0,0,0-15.2-10.7,55.36,55.36,0,0,0-21.13-3.9,56.09,56.09,0,0,0-21.23,3.9,37.72,37.72,0,0,0-15.25,10.6,23.2,23.2,0,0,0-5.4,15.9,23.39,23.39,0,0,0,5.4,15.7,36.1,36.1,0,0,0,15.25,10.7A57.66,57.66,0,0,0,491.67,127.3Z"/><path d="M670.17,120.8a84.34,84.34,0,0,1-14.2,4.6,79,79,0,0,1-18.2,1.9,49.71,49.71,0,0,1-20.1-3.9,33.5,33.5,0,0,1-13.9-10.7,25.64,25.64,0,0,1-5-15.6,26.24,26.24,0,0,1,4.8-15.7,32.34,32.34,0,0,1,13.6-10.6q8.8-3.9,20.8-3.9a60.63,60.63,0,0,1,15.8,2.1,81.55,81.55,0,0,1,14.9,5.6A61,61,0,0,1,677,79.49V49.31c-2.08-.83-4.23-1.61-6.48-2.31a114.48,114.48,0,0,0-34.3-4.9q-19,0-34.2,7.2a60.43,60.43,0,0,0-24,19.6,47.53,47.53,0,0,0-8.8,28.2,47.33,47.33,0,0,0,8.9,28.1q8.89,12.49,24.3,19.7t35.2,7.2q18.4,0,32.8-4.7c2.25-.73,4.45-1.5,6.58-2.3V117.66C674.85,118.7,672.6,119.74,670.17,120.8Z"/><polygon points="290.69 32.53 218.43 182.53 187.29 182.53 203.88 148.09 162.87 92.55 178.75 70.17 215.96 123.05 259.56 32.53 290.69 32.53"/></g></g></svg>